<svg width="109" height="87" viewBox="0 0 109 87" fill="none" xmlns="http://www.w3.org/2000/svg">
<path d="M64.7925 0C66.98 0.00761889 69.0804 0.857901 70.6573 2.37401C72.2342 3.89013 73.1663 5.95562 73.2599 8.14113H80.0951C80.1058 6.79287 80.6471 5.50297 81.6017 4.55085C82.5564 3.59872 83.8477 3.06107 85.1959 3.05396H91.9971C94.789 3.05396 97.0912 5.35266 97.098 8.14113H103.675C106.596 8.14113 109 10.5488 109 13.4699V41.5587L107.752 41.902C106.983 42.1129 106.348 42.2625 105.599 42.4666V81.2673C105.599 84.066 103.294 86.3682 100.499 86.3682H8.6829C5.88762 86.3682 3.58203 84.066 3.58203 81.2673V42.5346L1.31725 41.902L0.0692291 41.555V13.4662C0.0692291 10.5485 2.47344 8.14113 5.39454 8.14113H12.0835C12.0942 6.79287 12.6355 5.50297 13.5901 4.55085C14.5448 3.59872 15.8361 3.06107 17.1843 3.05396H23.9855C26.7774 3.05396 29.0796 5.35266 29.0864 8.14113H35.9215C36.0151 5.95562 36.9472 3.89013 38.5241 2.37401C40.101 0.857901 42.2015 0.00761889 44.389 0H64.7925V0ZM64.7925 3.40058H44.389C43.0975 3.38967 41.8512 3.87562 40.9081 4.75799C39.9649 5.64036 39.3971 6.85177 39.3221 8.14113H69.8593C69.7843 6.85177 69.2165 5.64036 68.2734 4.75799C67.3302 3.87562 66.084 3.38967 64.7925 3.40058ZM91.9971 6.45454H85.1959C84.2234 6.45454 83.4957 7.18567 83.4957 8.15483C83.4957 9.1274 84.2234 9.85512 85.1959 9.85512H91.9971C92.2219 9.86072 92.4455 9.82028 92.6543 9.73682C92.8632 9.65335 93.0528 9.52846 93.2119 9.36944C93.3709 9.21043 93.4959 9.02077 93.5794 8.81195C93.6628 8.60313 93.703 8.37965 93.6974 8.15483C93.6974 7.18567 92.9697 6.45454 91.9971 6.45454ZM23.9855 6.45454H17.1843C16.2118 6.45454 15.4841 7.18567 15.4841 8.15483C15.4841 9.1274 16.2118 9.85512 17.1843 9.85512H23.9855C24.2103 9.86072 24.4339 9.82028 24.6428 9.73682C24.8516 9.65335 25.0412 9.52846 25.2003 9.36944C25.3593 9.21043 25.4843 9.02077 25.5678 8.81195C25.6512 8.60313 25.6914 8.37965 25.6858 8.15483C25.6858 7.18567 24.9581 6.45454 23.9855 6.45454ZM103.675 11.5417H95.7683C94.8332 12.5823 93.49 13.2557 91.9971 13.2557H85.1959C83.6997 13.2557 82.3599 12.5823 81.4213 11.5417H59.6916V36.3354H61.3307C63.1262 36.3354 64.7925 37.7195 64.7925 39.6102V45.5612H69.8457C79.2857 45.4932 90.4532 43.0615 105.599 38.9298V13.4699C105.599 12.3715 104.77 11.5417 103.675 11.5417V11.5417ZM56.291 11.5417H52.8904V36.3354H56.291V11.545V11.5417ZM49.4899 11.5417H27.7602C26.8216 12.5823 25.4818 13.2557 23.9855 13.2557H17.1843C15.6881 13.2557 14.3483 12.5823 13.4097 11.5417H5.39454C4.29615 11.5417 3.46981 12.3715 3.46981 13.4699V38.9605C18.7894 43.2045 26.1517 45.5612 35.9079 45.5612H44.389V39.6102C44.389 37.7161 46.0553 36.3354 47.8508 36.3354H49.4899V11.545V11.5417ZM61.3919 39.7223H47.7896V59.1635H61.3919V39.7223ZM57.0561 42.1606C58.6034 42.1606 59.6916 43.5276 59.6916 44.9253V53.0083C59.6916 54.4025 58.6034 55.7629 57.0561 55.7629H52.1253C50.578 55.7629 49.4899 54.4025 49.4899 53.0083V44.9253C49.4899 43.5276 50.578 42.1606 52.1253 42.1606H57.0561V42.1606ZM102.199 43.364C89.1066 46.8156 78.8743 48.8972 69.8593 48.9618H64.7925V59.2893C64.7925 61.1834 63.1262 62.5641 61.3307 62.5641H47.8508C46.0553 62.5641 44.389 61.1834 44.389 59.2893V48.9618H35.9079C26.6754 48.9618 19.3845 46.9417 6.98261 43.4765V81.2673C6.98261 82.2399 7.71033 82.9676 8.6829 82.9676H100.499C100.723 82.9732 100.947 82.9327 101.156 82.8493C101.365 82.7658 101.554 82.6409 101.713 82.4819C101.872 82.3229 101.997 82.1332 102.081 81.9244C102.164 81.7156 102.204 81.4921 102.199 81.2673V43.364ZM56.291 45.5612H52.8904V52.3624H56.291V45.5612Z" fill="#0088C4"/>
</svg>
