<svg xmlns="http://www.w3.org/2000/svg" width="50.148" height="37.147" viewBox="0 0 50.148 37.147">
  <path id="cat_dining" d="M48.679,26.67h-.635a21.948,21.948,0,0,0-6.694-14.4A23.047,23.047,0,0,0,30.461,6.329V5.239a5.389,5.389,0,0,0-10.774,0V6.329A23.047,23.047,0,0,0,8.8,12.271,21.949,21.949,0,0,0,2.1,26.67H1.469A1.449,1.449,0,0,0,0,28.1a9.19,9.19,0,0,0,9.3,9.049H40.648a9.686,9.686,0,0,0,6.66-2.633A8.757,8.757,0,0,0,50.148,28.1,1.449,1.449,0,0,0,48.679,26.67ZM22.625,5.239a2.45,2.45,0,0,1,4.9,0v.6a23.906,23.906,0,0,0-4.9,0Zm2.449,3.334A19.884,19.884,0,0,1,45.1,26.67H5.049A19.884,19.884,0,0,1,25.074,8.572ZM40.648,34.289H9.3a6.343,6.343,0,0,1-6.2-4.762H47.026A6.6,6.6,0,0,1,40.648,34.289Z" fill="#0088c4"/>
</svg>
