<svg xmlns="http://www.w3.org/2000/svg" width="47.476" height="44.201" viewBox="0 0 47.476 44.201">
  <path id="shop" d="M13.284,3a3.208,3.208,0,0,0-3.131,3.259V7.888H7.047a.815.815,0,0,0-.764.534L2.107,19.69a.963.963,0,0,0-.057.748,4,4,0,0,0,4.844,3.625V46.176a.815.815,0,0,0,.815.815h4.764a.815.815,0,0,0,.938-.815v-10.6H18.3v10.6a.815.815,0,0,0,.932.815H43.553a.815.815,0,0,0,.815-.815V24.063a4,4,0,0,0,4.844-3.628.913.913,0,0,0-.059-.746L44.982,8.422a.815.815,0,0,0-.764-.534H41.109V6.259A3.206,3.206,0,0,0,37.981,3Zm0,1.629h24.7a1.547,1.547,0,0,1,1.5,1.629V7.888h-27.7V6.259a1.55,1.55,0,0,1,1.5-1.629ZM7.614,9.517H43.652L47.612,20.21a2.438,2.438,0,0,1-4.873-.116q0-.041,0-.081a.815.815,0,0,0-.238-.507q-.028-.028-.059-.054h0a.791.791,0,0,0-.6-.179h0a.815.815,0,0,0-.5.249v0a.815.815,0,0,0-.055.06s0,0,0,0q-.023.031-.044.064l0,0-.016.028-.021.039s0,0,0,0q-.018.036-.033.073s0,0,0,0q-.014.035-.024.072s0,0,0,0q-.01.038-.016.077s0,0,0,0q-.007.04-.01.08t0,.057a2.444,2.444,0,0,1-4.888,0,.818.818,0,0,0-.241-.588q-.028-.028-.059-.054h0a.791.791,0,0,0-.6-.179h0a.815.815,0,0,0-.5.249s0,0,0,0a.815.815,0,0,0-.055.06s0,0,0,0q-.023.031-.044.064l0,0-.016.028-.021.039s0,0,0,0q-.018.036-.033.073v0q-.014.035-.024.072s0,0,0,0q-.01.038-.016.077s0,0,0,0q-.007.04-.01.08t0,.057a2.444,2.444,0,0,1-4.888,0q0-.041,0-.081a.815.815,0,0,0-.238-.507q-.028-.028-.059-.054h0a.791.791,0,0,0-.6-.179h0a.815.815,0,0,0-.5.249s0,0,0,0a.815.815,0,0,0-.055.06s0,0,0,0q-.023.031-.044.064l0,0-.016.028-.021.039s0,0,0,0q-.018.036-.033.073s0,0,0,0q-.014.035-.024.072s0,0,0,0q-.01.038-.016.077s0,0,0,0q-.007.04-.01.08t0,.057a2.444,2.444,0,0,1-4.888,0,.818.818,0,0,0-.241-.588q-.028-.028-.059-.054h0a.791.791,0,0,0-.6-.179h0a.815.815,0,0,0-.5.249s0,0,0,0a.815.815,0,0,0-.055.06s0,0,0,0q-.023.031-.044.064l0,0-.016.028-.021.039v0q-.018.036-.033.073s0,0,0,0q-.014.035-.024.072s0,0,0,0q-.01.038-.016.077s0,0,0,0q-.007.04-.01.08t0,.057a2.444,2.444,0,0,1-4.888,0,.818.818,0,0,0-.241-.588q-.028-.028-.059-.054h0a.791.791,0,0,0-.6-.179h0a.815.815,0,0,0-.5.249s0,0,0,0a.815.815,0,0,0-.055.06s0,0,0,0q-.023.031-.044.064l0,0-.016.028-.021.039s0,0,0,0q-.018.036-.033.073v0q-.014.035-.024.072s0,0,0,0q-.01.038-.016.077s0,0,0,0q-.007.04-.01.08t0,.057a2.444,2.444,0,0,1-4.888,0,.818.818,0,0,0-.241-.588q-.028-.028-.059-.054h0a.791.791,0,0,0-.6-.179h0a.815.815,0,0,0-.5.249s0,0,0,0a.814.814,0,0,0-.055.06s0,0,0,0q-.023.031-.044.064l0,0-.016.028-.021.039s0,0,0,0q-.018.036-.033.073s0,0,0,0q-.014.035-.024.072s0,0,0,0q-.01.038-.016.077s0,0,0,0q-.007.04-.01.08t0,.057a2.437,2.437,0,0,1-4.872.117L7.613,9.517ZM9.338,22.481a4.017,4.017,0,0,0,1.222,1.142,4.076,4.076,0,0,0,4.073,0,4.017,4.017,0,0,0,1.222-1.142,4.017,4.017,0,0,0,1.222,1.142,4.076,4.076,0,0,0,4.073,0,4.017,4.017,0,0,0,1.222-1.142,4.017,4.017,0,0,0,1.222,1.142,4.076,4.076,0,0,0,4.073,0,4.017,4.017,0,0,0,1.222-1.142,4.017,4.017,0,0,0,1.222,1.142,4.076,4.076,0,0,0,4.073,0,4.017,4.017,0,0,0,1.222-1.142,4.017,4.017,0,0,0,1.222,1.142,4.076,4.076,0,0,0,4.073,0,4.017,4.017,0,0,0,1.222-1.142,4,4,0,0,0,.815.828V45.361H19.929v-10.6a.815.815,0,0,0-.815-.815H12.6a.815.815,0,0,0-.815.815v10.6H8.524V23.309a4,4,0,0,0,.815-.828ZM27.26,29.068a.815.815,0,0,0-.815.815v9.776a.815.815,0,0,0,.815.815h11.4a.815.815,0,0,0,.815-.815V29.883a.815.815,0,0,0-.815-.815Zm.815,1.629h9.776v8.146H28.075Z" transform="translate(-1.894 -2.9)" fill="#0088c4" stroke="#0088c4" stroke-width="0.2"/>
</svg>
