<svg id="hotel" xmlns="http://www.w3.org/2000/svg" width="44" height="44" viewBox="0 0 44 44">
  <path id="Path_5284" data-name="Path 5284" d="M41.937,17.875H37.125V11.184l1.692,1.083a.7.7,0,0,0,.95-.209.687.687,0,0,0-.209-.949L22.37.109a.687.687,0,0,0-.741,0l-17.187,11a.687.687,0,1,0,.741,1.158l1.692-1.083v6.691H2.062A2.065,2.065,0,0,0,0,19.938V43.313A.687.687,0,0,0,.687,44H43.312A.687.687,0,0,0,44,43.313V19.938a2.065,2.065,0,0,0-2.062-2.062ZM15.665,24.75a8.983,8.983,0,0,1-2.258-5.957A8.721,8.721,0,0,1,22,9.969a8.721,8.721,0,0,1,8.594,8.824,8.984,8.984,0,0,1-2.259,5.958Zm-.883,11.344H8.25V34.031h6.531Zm0-3.437H8.25V30.594h6.531ZM8.25,37.469h6.531v1.719H8.25Zm20.969-3.437H35.75v2.062H29.219Zm0,3.437H35.75v1.719H29.219Zm6.531-4.812H29.219V30.594H35.75Zm-6.531,7.906H35.75v2.062H29.219ZM22,1.5,35.75,10.3v1.727H31.2a11.635,11.635,0,0,1,.838,1.375H35.75v2.062H32.865a11.669,11.669,0,0,1,.315,1.375h2.57v2.062H33.341a11.709,11.709,0,0,1-.1,1.375H35.75v2.062H32.793a11.79,11.79,0,0,1-.536,1.375H35.75v2.062H31.036a11.441,11.441,0,0,1-1.2,1.375H35.75v2.062H29.219v-3.4a10.361,10.361,0,0,0,2.75-7.03A10.1,10.1,0,0,0,22,8.594a10.1,10.1,0,0,0-9.969,10.2,10.359,10.359,0,0,0,2.75,7.03v3.4H8.25V27.156h5.913a11.437,11.437,0,0,1-1.2-1.375H8.25V23.719h3.492a11.791,11.791,0,0,1-.535-1.375H8.25V20.281h2.505a11.709,11.709,0,0,1-.1-1.375H8.25V16.844h2.57a11.67,11.67,0,0,1,.315-1.375H8.25V13.406h3.714a11.634,11.634,0,0,1,.838-1.375H8.25V10.3ZM1.375,19.938a.688.688,0,0,1,.687-.687H6.875V42.625H4.812V40.377c.905-.521,1.375-2.066,1.375-3.6C6.187,34.9,5.479,33,4.125,33s-2.062,1.9-2.062,3.781c0,1.53.47,3.074,1.375,3.6v2.248H1.375ZM4.139,39.189h0c-.194-.063-.7-.9-.7-2.408a3.319,3.319,0,0,1,.673-2.408c.194.063.7.9.7,2.408A3.319,3.319,0,0,1,4.139,39.189ZM8.25,40.563h6.531v2.062H8.25Zm7.906-14.437h5.156v16.5H16.156Zm6.531,16.5v-16.5h5.156v16.5Zm17.2-3.436h0c-.194-.063-.7-.9-.7-2.408a3.319,3.319,0,0,1,.673-2.408c.194.063.7.9.7,2.408A3.319,3.319,0,0,1,39.889,39.189Zm2.736,3.436H40.562V40.377c.905-.521,1.375-2.066,1.375-3.6,0-1.879-.708-3.781-2.062-3.781s-2.062,1.9-2.062,3.781c0,1.53.47,3.074,1.375,3.6v2.248H37.125V19.25h4.812a.688.688,0,0,1,.687.687Z" transform="translate(0 0)" fill="#0088c4"/>
  <path id="Path_5285" data-name="Path 5285" d="M44.844,26.531H42.781a1.032,1.032,0,0,0-1.031,1.031v2.75a1.032,1.032,0,0,0,1.031,1.031h2.062a1.032,1.032,0,0,0,1.031-1.031v-2.75A1.032,1.032,0,0,0,44.844,26.531ZM44.5,29.969H43.125V27.906H44.5Zm.344,2.75H42.781A1.032,1.032,0,0,0,41.75,33.75V36.5a1.032,1.032,0,0,0,1.031,1.031h2.062A1.032,1.032,0,0,0,45.875,36.5V33.75A1.032,1.032,0,0,0,44.844,32.719ZM44.5,36.156H43.125V34.094H44.5ZM7.031,31.344H9.094a1.032,1.032,0,0,0,1.031-1.031v-2.75a1.032,1.032,0,0,0-1.031-1.031H7.031A1.032,1.032,0,0,0,6,27.562v2.75A1.032,1.032,0,0,0,7.031,31.344Zm.344-3.437H8.75v2.062H7.375Zm-.344,9.625H9.094A1.032,1.032,0,0,0,10.125,36.5V33.75a1.032,1.032,0,0,0-1.031-1.031H7.031A1.032,1.032,0,0,0,6,33.75V36.5A1.032,1.032,0,0,0,7.031,37.531Zm.344-3.437H8.75v2.062H7.375Zm15.812,4.469a.687.687,0,0,0-.687.687v2.062a.687.687,0,0,0,1.375,0V39.25A.687.687,0,0,0,23.187,38.562Zm5.5,0A.687.687,0,0,0,28,39.25v2.062a.687.687,0,0,0,1.375,0V39.25A.687.687,0,0,0,28.687,38.562Zm0-18.906a.687.687,0,0,0-.687.687v3.094H23.875V20.344a.687.687,0,0,0-1.375,0v7.562a.687.687,0,1,0,1.375,0V24.812H28v3.094a.687.687,0,1,0,1.375,0V20.344A.687.687,0,0,0,28.687,19.656Zm-2.75-6.531a2.062,2.062,0,1,0-2.062-2.062A2.062,2.062,0,0,0,25.937,13.125Zm0-2.75a.687.687,0,1,1-.687.687A.687.687,0,0,1,25.937,10.375Z" transform="translate(-3.938 -5.906)" fill="#0088c4"/>
</svg>
