<svg xmlns="http://www.w3.org/2000/svg" width="44.002" height="44" viewBox="0 0 44.002 44">
  <path id="Communication" d="M24.7,3.257A21.952,21.952,0,0,0,6.189,36.179a.863.863,0,0,0,1.5-.863A20.223,20.223,0,0,1,37.9,9.465h-.883a.863.863,0,0,0,0,1.725h3.139a.863.863,0,0,0,.863-.863V7.189a.863.863,0,1,0-1.725,0v1.18A21.91,21.91,0,0,0,24.7,3.257Zm.5,4.512a17.16,17.16,0,0,0-14.463,8.282H10.7V16.1a16.943,16.943,0,0,0-2.932,9.1A16.929,16.929,0,0,0,10.7,34.294v.053h.035A17.167,17.167,0,0,0,25.2,42.632,17.155,17.155,0,0,0,39.666,34.35H39.7V34.3a16.923,16.923,0,0,0,2.935-9.1A16.929,16.929,0,0,0,39.7,16.1v-.047h-.035A17.155,17.155,0,0,0,25.2,7.77Zm-.863,1.9v6.383H18.314a51.592,51.592,0,0,1,1.832-5.522,15.091,15.091,0,0,1,4.2-.863Zm1.725,0a15.1,15.1,0,0,1,4.051.811,51.651,51.651,0,0,1,1.855,5.572h-5.9V9.668Zm6.229,1.748a15.923,15.923,0,0,1,5.342,4.635H33.774c-.4-1.536-.915-3.083-1.482-4.635ZM17.956,11.5q-.834,2.242-1.455,4.555h-3.73A15.948,15.948,0,0,1,17.956,11.5Zm25.563,2.4a.863.863,0,0,0-.7,1.294A20.22,20.22,0,0,1,12.649,41.069h.828a.863.863,0,0,0,0-1.725H10.483a.863.863,0,0,0-.311.017h0a.863.863,0,0,0-.69.845v3.137a.863.863,0,1,0,1.725,0v-1.22a21.949,21.949,0,0,0,33.107-27.8A.863.863,0,0,0,43.519,13.892ZM11.608,17.778h4.481a38.813,38.813,0,0,0-.859,6.562H9.671A15.3,15.3,0,0,1,11.608,17.778Zm6.231,0h6.5V24.34h-7.4a36.873,36.873,0,0,1,.9-6.562Zm8.227,0h6.376a36.873,36.873,0,0,1,.9,6.562H26.066Zm8.122,0H38.8a15.351,15.351,0,0,1,1.938,6.562H35.047A38.819,38.819,0,0,0,34.188,17.778ZM9.669,26.066H15.2a35.645,35.645,0,0,0,.638,6.56H11.61a15.3,15.3,0,0,1-1.938-6.56Zm7.233,0h7.437v6.56H17.584A33.494,33.494,0,0,1,16.9,26.066Zm9.162,0h7.314a33.492,33.492,0,0,1-.682,6.56H26.066v-6.56Zm9.012,0h5.66a15.336,15.336,0,0,1-1.938,6.56H34.44a35.528,35.528,0,0,0,.638-6.56ZM12.771,34.351h3.451a40.146,40.146,0,0,0,1.3,4.307,16.011,16.011,0,0,1-4.75-4.307Zm5.211,0h6.358v6.384a15.072,15.072,0,0,1-4.538-.989,40.205,40.205,0,0,1-1.822-5.4Zm8.084,0H32.3A40.243,40.243,0,0,1,30.454,39.8a15.077,15.077,0,0,1-4.388.932V34.351Zm7.992,0h3.577a15.988,15.988,0,0,1-4.911,4.409A39.5,39.5,0,0,0,34.059,34.351Z" transform="translate(-3.25 -3.251)" fill="#0088c4"/>
</svg>
