<svg xmlns="http://www.w3.org/2000/svg" width="48.893" height="44" viewBox="0 0 48.893 44">
  <path id="healthcare" d="M2.815,49H7.7a.815.815,0,0,0,.815-.815v-1.63h10.5l10.419,2.363a3.893,3.893,0,0,0,3.249-.784L49.4,34.781a3.407,3.407,0,0,0,.984-4.61A3.183,3.183,0,0,0,48.347,28.7a3.089,3.089,0,0,0-2.393.454L37.21,34.976a5.7,5.7,0,0,0-5.063-3.088H26.228a9.257,9.257,0,0,0-5.488-1.63c-3.694,0-6.671,1.733-7.236,4.074H8.518v-.815A.815.815,0,0,0,7.7,32.7H2.815A.815.815,0,0,0,2,33.517v6.518H3.63v-5.7H6.889V47.369H3.63v-5.69H2v6.505A.815.815,0,0,0,2.815,49ZM14.222,35.962a.815.815,0,0,0,.815-.815c0-1.766,2.612-3.259,5.7-3.259a7.539,7.539,0,0,1,4.685,1.441.815.815,0,0,0,.521.188h6.2a4.08,4.08,0,0,1,3.992,3.259H26.391a.815.815,0,1,0,0,1.63H37.036a.815.815,0,0,0,.815-.815,5.68,5.68,0,0,0-.1-1.019l9.1-6.06A1.467,1.467,0,0,1,48,30.293a1.565,1.565,0,0,1,1,.729,1.793,1.793,0,0,1-.512,2.411.826.826,0,0,0-.069.05L31.671,46.859a2.268,2.268,0,0,1-1.885.464l-10.5-2.378a.793.793,0,0,0-.18-.02H8.518V35.962ZM31.5,5a7.67,7.67,0,0,0-5.052,1.9,7.718,7.718,0,0,0-10.724.57,8.743,8.743,0,0,0,0,11.839l7.465,7.893a4.459,4.459,0,0,0,3.259,1.423h0A4.455,4.455,0,0,0,29.7,27.206l7.459-7.894A8.729,8.729,0,0,0,37.169,7.47,7.752,7.752,0,0,0,31.507,5Zm4.487,13.192-7.456,7.894a2.889,2.889,0,0,1-4.155,0l-7.46-7.894A6.73,6.73,0,0,1,15.7,16.407h.962a.815.815,0,0,0,.757-.512l.873-2.184.873,2.184a.815.815,0,0,0,.757.512h1.63v.815a.815.815,0,0,0,.815.815H24v1.63a.815.815,0,0,0,.815.815h3.259a.815.815,0,0,0,.815-.815v-1.63h1.63a.815.815,0,0,0,.815-.815v-.815h1.63a.815.815,0,0,0,.678-.363l.952-1.43.952,1.428a.815.815,0,0,0,.678.365h.967a6.718,6.718,0,0,1-1.2,1.785Zm-7.909-3.415H29.7v1.63h-1.63a.815.815,0,0,0-.815.815v1.63h-1.63v-1.63a.815.815,0,0,0-.815-.815h-1.63v-1.63h1.63a.815.815,0,0,0,.815-.815v-1.63h1.63v1.63A.815.815,0,0,0,28.073,14.777ZM37.85,13.4a7.3,7.3,0,0,1-.132,1.379H36.659L35.274,12.7a.847.847,0,0,0-1.356,0l-1.392,2.082H31.332v-.815a.815.815,0,0,0-.815-.815h-1.63v-1.63a.815.815,0,0,0-.815-.815H24.814a.815.815,0,0,0-.815.815v1.63H22.37a.815.815,0,0,0-.815.815v.815H20.477l-1.424-3.562a.815.815,0,0,0-1.514,0l-1.424,3.562h-.942a7.072,7.072,0,0,1,1.738-6.187,6.1,6.1,0,0,1,8.946,0,.839.839,0,0,0,1.184,0A6.111,6.111,0,0,1,31.5,6.63a6.187,6.187,0,0,1,4.481,1.961A6.954,6.954,0,0,1,37.85,13.4Z" transform="translate(-2 -5)" fill="#0088c4"/>
</svg>
