<svg width="109" height="102" viewBox="0 0 109 102" fill="none" xmlns="http://www.w3.org/2000/svg">
<path d="M26.3092 28.3533C26.4189 28.1337 26.4761 27.8916 26.4761 27.6462C26.4761 27.4007 26.4189 27.1586 26.3092 26.939C25.5049 25.3052 24.2592 23.9293 22.7131 22.9672C21.167 22.0051 19.3823 21.4951 17.5613 21.4951C15.7403 21.4951 13.9556 22.0051 12.4096 22.9672C10.8635 23.9293 9.6177 25.3052 8.81338 26.939C8.70367 27.1586 8.64656 27.4007 8.64656 27.6462C8.64656 27.8916 8.70367 28.1337 8.81338 28.3533C9.6177 29.9871 10.8635 31.363 12.4096 32.3251C13.9556 33.2873 15.7403 33.7972 17.5613 33.7972C19.3823 33.7972 21.167 33.2873 22.7131 32.3251C24.2592 31.363 25.5049 29.9871 26.3092 28.3533V28.3533ZM12.0531 27.6462C12.6505 26.7297 13.467 25.9768 14.4289 25.4556C15.3907 24.9344 16.4674 24.6614 17.5613 24.6614C18.6553 24.6614 19.7319 24.9344 20.6938 25.4556C21.6556 25.9768 22.4722 26.7297 23.0695 27.6462C22.4722 28.5626 21.6556 29.3156 20.6938 29.8367C19.7319 30.3579 18.6553 30.6309 17.5613 30.6309C16.4674 30.6309 15.3907 30.3579 14.4289 29.8367C13.467 29.3156 12.6505 28.5626 12.0531 27.6462ZM43.5369 21.4951C41.7156 21.494 39.9305 22.0034 38.3841 22.9657C36.8378 23.9279 35.5922 25.3044 34.7887 26.9389C34.679 27.1585 34.6218 27.4007 34.6218 27.6462C34.6218 27.8917 34.679 28.1338 34.7887 28.3534C35.593 29.9872 36.8388 31.363 38.3849 32.3252C39.931 33.2873 41.7157 33.7972 43.5367 33.7972C45.3578 33.7972 47.1424 33.2873 48.6885 32.3251C50.2346 31.363 51.4804 29.9871 52.2847 28.3533C52.3944 28.1337 52.4515 27.8916 52.4515 27.6462C52.4515 27.4007 52.3944 27.1586 52.2847 26.939C51.4814 25.3045 50.2359 23.9279 48.6896 22.9657C47.1433 22.0034 45.3582 21.4939 43.5369 21.4951V21.4951ZM43.5369 30.6309C42.4428 30.6313 41.366 30.3586 40.4041 29.8374C39.4422 29.3161 38.6256 28.563 38.0286 27.6462C38.6259 26.7297 39.4425 25.9768 40.4043 25.4556C41.3662 24.9344 42.4428 24.6614 43.5368 24.6614C44.6308 24.6614 45.7074 24.9344 46.6692 25.4556C47.6311 25.9768 48.4476 26.7297 49.045 27.6462C48.448 28.5629 47.6315 29.3161 46.6696 29.8373C45.7077 30.3586 44.6309 30.6313 43.5369 30.6309V30.6309ZM45.3975 44.8256C45.1582 44.6683 44.8806 44.5788 44.5944 44.5667C44.3082 44.5546 44.0241 44.6204 43.7723 44.757C39.7119 46.9582 35.1674 48.1141 30.5487 48.1204H30.4986C25.8972 48.1053 21.3712 46.9498 17.3258 44.7571C17.0741 44.6204 16.79 44.5546 16.5038 44.5667C16.2176 44.5788 15.9401 44.6683 15.7008 44.8256C15.4614 44.983 15.2693 45.2023 15.1448 45.4602C15.0203 45.7182 14.968 46.0051 14.9937 46.2903C15.3429 50.1819 17.1118 53.8088 19.9632 56.48C22.7768 59.1409 26.4865 60.649 30.3587 60.7059C30.4218 60.7067 30.4836 60.7071 30.5467 60.7071C38.5567 60.7071 45.3726 54.4094 46.1044 46.2905C46.1301 46.0053 46.0779 45.7183 45.9535 45.4604C45.829 45.2024 45.6368 44.983 45.3975 44.8256H45.3975ZM30.3974 57.5398C25.106 57.4749 20.46 53.8842 18.7723 48.9449C22.4895 50.4809 26.4708 51.2764 30.4929 51.2867H30.5487C34.5921 51.2839 38.5957 50.4874 42.3322 48.9423C40.621 54.0054 35.8513 57.6072 30.3974 57.5398H30.3974ZM106.247 22.3718C105.692 22.0433 105.061 21.8674 104.416 21.862C103.771 21.8566 103.137 22.0219 102.577 22.3411C94.8245 26.7159 86.066 28.9946 77.1648 28.9527C71.6958 28.9119 66.2696 27.9836 61.0981 26.2039V3.69467C61.0984 3.05 60.93 2.41648 60.6096 1.8571C60.2891 1.29773 59.8278 0.831992 59.2715 0.506212C58.7152 0.180433 58.0833 0.00596124 57.4387 0.00015007C56.794 -0.0056611 56.1591 0.15739 55.597 0.473088C47.9509 4.78571 39.3255 7.06269 30.5471 7.0859C30.4271 7.0859 30.3057 7.08548 30.1853 7.08456C21.5339 6.99948 13.0446 4.72666 5.5079 0.477726C4.9459 0.160743 4.31068 -0.00348558 3.66547 0.00139578C3.02026 0.00627714 2.38759 0.180098 1.83046 0.505548C1.27333 0.830998 0.811173 1.29672 0.490019 1.85634C0.168865 2.41596 -8.28671e-05 3.04995 3.04918e-08 3.69518V43.9555C3.04918e-08 56.1377 5.76351 67.7619 15.4173 75.0503C19.7729 78.3475 25.0862 80.1319 30.5491 80.1319C36.0119 80.1319 41.3252 78.3475 45.6808 75.0503C46.3818 74.5211 47.0597 73.9664 47.7188 73.393C49.5682 82.7666 54.7905 91.1367 62.3968 96.9184C66.7523 100.216 72.0657 102 77.5285 102C82.9914 102 88.3047 100.216 92.6602 96.9184C102.314 89.6301 108.078 78.0058 108.078 65.8236V25.5628C108.081 24.9167 107.914 24.2811 107.592 23.7207C107.271 23.1602 106.806 22.6949 106.247 22.3718V22.3718ZM60.9205 47.6275C61.9918 46.9108 63.252 46.5286 64.5409 46.5296C65.6349 46.5291 66.7118 46.8019 67.6737 47.3231C68.6356 47.8444 69.4521 48.5975 70.0492 49.5143C69.5493 50.283 68.8938 50.9384 68.125 51.4382C67.3563 51.9381 66.4913 52.2713 65.5859 52.4164C64.6804 52.5614 63.7547 52.5151 62.8682 52.2805C61.9818 52.0459 61.1544 51.6281 60.4393 51.0541C60.6495 49.9226 60.81 48.7804 60.9205 47.6275ZM43.7731 72.5232C39.9671 75.4056 35.3234 76.9655 30.5491 76.9655C25.7747 76.9655 21.131 75.4056 17.325 72.5232C8.45923 65.8299 3.16634 55.1503 3.16634 43.9555V3.69518C3.16446 3.60286 3.18769 3.51176 3.23354 3.43162C3.2794 3.35147 3.34616 3.28528 3.42669 3.24012C3.50773 3.19201 3.60003 3.16616 3.69426 3.16518C3.78575 3.16593 3.87544 3.19063 3.95442 3.23682C11.9588 7.74859 20.9747 10.1615 30.1626 10.2509C30.2913 10.2518 30.4191 10.2522 30.5473 10.2522C39.8697 10.2285 49.0298 7.81129 57.1501 3.23229C57.229 3.18608 57.3189 3.16214 57.4103 3.16301C57.5017 3.16388 57.5912 3.18954 57.6692 3.23724C57.7502 3.28258 57.8175 3.34908 57.8637 3.42964C57.91 3.51019 57.9335 3.60179 57.9318 3.69467V43.9555C57.9318 55.1503 52.6389 65.8299 43.7731 72.5232ZM104.911 65.8236C104.911 77.0184 99.6183 87.698 90.7526 94.3913C86.9465 97.2737 82.3029 98.8337 77.5285 98.8337C72.7542 98.8337 68.1105 97.2737 64.3044 94.3913C56.7487 88.6446 51.7787 80.1375 50.4832 70.7335C54.8276 66.1001 57.9821 60.4811 59.6754 54.3594C60.8306 55.0267 62.1105 55.4495 63.4359 55.6017C64.7612 55.754 66.1036 55.6323 67.38 55.2444C68.6564 54.8564 69.8395 54.2104 70.8559 53.3464C71.8723 52.4824 72.7004 51.4188 73.2889 50.2216C73.3986 50.0019 73.4557 49.7598 73.4557 49.5143C73.4557 49.2688 73.3986 49.0266 73.2889 48.807C72.2189 46.6326 70.3773 44.9347 68.1233 44.0446C65.8693 43.1545 63.3646 43.1359 61.0976 43.9925C61.0976 43.9801 61.0981 43.9678 61.0981 43.9555V29.5393C66.2841 31.2089 71.6941 32.0788 77.1421 32.119C77.2707 32.1199 77.3986 32.1204 77.5268 32.1204C86.8492 32.0966 96.0094 29.6794 104.13 25.1003C104.209 25.0543 104.299 25.0305 104.39 25.0313C104.481 25.0322 104.571 25.0577 104.649 25.1053C104.73 25.1506 104.797 25.2171 104.843 25.2977C104.889 25.3783 104.913 25.4699 104.911 25.5628V65.8236ZM90.5164 43.3632C88.6951 43.362 86.9099 43.8715 85.3636 44.8337C83.8173 45.796 82.5717 47.1726 81.7683 48.8071C81.6586 49.0267 81.6015 49.2688 81.6015 49.5143C81.6015 49.7598 81.6586 50.0019 81.7683 50.2215C82.5727 51.8552 83.8184 53.2311 85.3645 54.1932C86.9106 55.1554 88.6952 55.6653 90.5163 55.6653C92.3373 55.6653 94.1219 55.1554 95.668 54.1932C97.2141 53.2311 98.4599 51.8552 99.2642 50.2215C99.3739 50.0019 99.431 49.7598 99.431 49.5143C99.431 49.2688 99.3739 49.0267 99.2642 48.8071C98.4609 47.1726 97.2153 45.7961 95.669 44.8338C94.1227 43.8715 92.3376 43.362 90.5164 43.3632V43.3632ZM90.5164 52.499C89.4223 52.4994 88.3455 52.2267 87.3836 51.7055C86.4216 51.1842 85.6051 50.4311 85.0081 49.5143C85.6054 48.5978 86.422 47.8449 87.3838 47.3237C88.3456 46.8025 89.4223 46.5296 90.5163 46.5296C91.6102 46.5296 92.6869 46.8025 93.6487 47.3237C94.6105 47.8449 95.4271 48.5978 96.0245 49.5143C95.4275 50.4311 94.611 51.1842 93.6491 51.7055C92.6872 52.2267 91.6104 52.4994 90.5164 52.499V52.499ZM77.5262 66.4334C77.4635 66.4334 77.4008 66.4337 77.3382 66.4345C73.466 66.4914 69.7562 67.9995 66.9426 70.6604C64.0912 73.3316 62.3224 76.9586 61.9732 80.8501C61.9475 81.1354 61.9997 81.4223 62.1242 81.6802C62.2487 81.9382 62.4409 82.1575 62.6802 82.3149C62.9195 82.4722 63.1971 82.5617 63.4833 82.5738C63.7694 82.5858 64.0535 82.52 64.3053 82.3834C68.3507 80.1906 72.8767 79.035 77.4781 79.0201H77.5282C82.1469 79.0264 86.6913 80.1823 90.7518 82.3834C91.0035 82.52 91.2876 82.5859 91.5738 82.5738C91.86 82.5617 92.1376 82.4722 92.3769 82.3148C92.6163 82.1575 92.8085 81.9381 92.9329 81.6801C93.0574 81.4221 93.1096 81.1352 93.0839 80.8499C92.3523 72.7305 85.537 66.4334 77.5262 66.4334V66.4334ZM77.5282 75.8537H77.4723C73.4503 75.864 69.469 76.6595 65.7518 78.1955C67.4394 73.2562 72.0855 69.6656 77.3769 69.6006C82.8252 69.5263 87.6005 73.1348 89.3117 78.198C85.5751 76.6529 81.5716 75.8564 77.5282 75.8537V75.8537Z" fill="#0088C4"/>
</svg>
