<svg width="17" height="17" viewBox="0 0 17 17" fill="none" xmlns="http://www.w3.org/2000/svg">
<g clip-path="url(#clip0_69_334)">
<path d="M8.50006 2.77169C8.70332 2.77169 8.86962 2.60539 8.86962 2.40213V2.21734C8.86962 2.01408 8.70332 1.84778 8.50006 1.84778C8.2968 1.84778 8.13049 2.01408 8.13049 2.21734V2.40213C8.13049 2.60539 8.2968 2.77169 8.50006 2.77169Z" fill="#444444"/>
<path d="M8.50006 14.2283C8.2968 14.2283 8.13049 14.3946 8.13049 14.5978V14.7826C8.13049 14.9859 8.2968 15.1522 8.50006 15.1522C8.70332 15.1522 8.86962 14.9859 8.86962 14.7826V14.5978C8.86962 14.3946 8.70332 14.2283 8.50006 14.2283Z" fill="#444444"/>
<path d="M2.40213 8.13049H2.21734C2.01408 8.13049 1.84778 8.2968 1.84778 8.50006C1.84778 8.70332 2.01408 8.86962 2.21734 8.86962H2.40213C2.60539 8.86962 2.77169 8.70332 2.77169 8.50006C2.77169 8.2968 2.60539 8.13049 2.40213 8.13049Z" fill="#444444"/>
<path d="M14.7826 8.13049H14.5978C14.3946 8.13049 14.2283 8.2968 14.2283 8.50006C14.2283 8.70332 14.3946 8.86962 14.5978 8.86962H14.7826C14.9859 8.86962 15.1522 8.70332 15.1522 8.50006C15.1522 8.2968 14.9859 8.13049 14.7826 8.13049Z" fill="#444444"/>
<path d="M4.32394 3.80655C4.17611 3.65872 3.95437 3.65872 3.80655 3.80655C3.65872 3.95437 3.65872 4.17611 3.80655 4.32394L3.9359 4.45329C4.00981 4.5272 4.1022 4.56416 4.19459 4.56416C4.28698 4.56416 4.37937 4.5272 4.45329 4.45329C4.60111 4.30546 4.60111 4.08372 4.45329 3.9359L4.32394 3.80655Z" fill="#444444"/>
<path d="M3.9359 12.5468L3.80655 12.6761C3.65872 12.824 3.65872 13.0457 3.80655 13.1935C3.88046 13.2674 3.97285 13.3044 4.06524 13.3044C4.15764 13.3044 4.25003 13.2674 4.32394 13.1935L4.45329 13.0642C4.60111 12.9163 4.60111 12.6946 4.45329 12.5468C4.30546 12.399 4.08372 12.399 3.9359 12.5468Z" fill="#444444"/>
<path d="M12.6761 3.80655L12.5468 3.9359C12.399 4.08372 12.399 4.30546 12.5468 4.45329C12.6207 4.5272 12.7131 4.56416 12.8055 4.56416C12.8979 4.56416 12.9903 4.5272 13.0642 4.45329L13.1935 4.32394C13.3413 4.17611 13.3413 3.95437 13.1935 3.80655C13.0457 3.65872 12.824 3.65872 12.6761 3.80655Z" fill="#444444"/>
<path d="M8.86962 8.35212V4.98907C8.86962 4.78581 8.70332 4.61951 8.50006 4.61951C8.2968 4.61951 8.13049 4.78581 8.13049 4.98907V8.49994C8.13049 8.59233 8.16745 8.68472 8.24136 8.75864L12.2881 12.8054C12.362 12.8793 12.4544 12.9162 12.5468 12.9162C12.6392 12.9162 12.7316 12.8793 12.8055 12.8054C12.9533 12.6576 12.9533 12.4358 12.8055 12.288L8.86962 8.35212Z" fill="#444444"/>
<path d="M8.5 0C3.80652 0 0 3.80652 0 8.5C0 13.1935 3.80652 17 8.5 17C13.1935 17 17 13.1935 17 8.5C17 3.80652 13.1935 0 8.5 0ZM8.5 16.2609C4.21304 16.2609 0.73913 12.787 0.73913 8.5C0.73913 4.21304 4.21304 0.73913 8.5 0.73913C12.787 0.73913 16.2609 4.21304 16.2609 8.5C16.2609 12.787 12.787 16.2609 8.5 16.2609Z" fill="#444444"/>
</g>
<defs>
<clipPath id="clip0_69_334">
<rect width="17" height="17" fill="white"/>
</clipPath>
</defs>
</svg>
