<svg width="21" height="21" viewBox="0 0 21 21" fill="none" xmlns="http://www.w3.org/2000/svg">
<path d="M10.4998 0C4.71028 0 0 4.7102 0 10.4998C0 16.2896 4.71028 21 10.4998 21C16.2897 21 21 16.2896 21 10.4998C20.9998 4.7102 16.2895 0 10.4998 0ZM16.0882 7.76135C15.8098 8.17826 15.4636 8.54563 15.0639 8.84826C15.0656 8.90919 15.0667 8.97011 15.0667 9.03104C15.0667 12.0931 12.7367 15.2603 8.83736 15.2603C7.64743 15.2608 6.48238 14.9196 5.48077 14.2772C5.44506 14.2544 5.41816 14.2202 5.40447 14.1801C5.39077 14.14 5.39111 14.0964 5.40541 14.0566C5.41933 14.0165 5.44657 13.9823 5.48259 13.9599C5.51862 13.9374 5.56125 13.928 5.60337 13.9332C5.76778 13.9521 5.93069 13.9615 6.08779 13.9615C6.85265 13.9615 7.58152 13.7559 8.22134 13.3629C7.83601 13.2699 7.4811 13.0793 7.19079 12.8094C6.90048 12.5395 6.68454 12.1994 6.56377 11.8218C6.55388 11.7908 6.5522 11.7578 6.55891 11.7259C6.56561 11.6941 6.58046 11.6645 6.60201 11.6402C6.62356 11.6157 6.65114 11.5974 6.68199 11.587C6.71285 11.5765 6.7459 11.5744 6.77785 11.5807C6.8131 11.5875 6.84853 11.5933 6.88377 11.5982C6.2327 11.1833 5.81034 10.4539 5.81034 9.64629V9.61948C5.81035 9.58686 5.81888 9.5548 5.83509 9.52649C5.85129 9.49817 5.8746 9.47457 5.90272 9.45802C5.93083 9.44147 5.96278 9.43255 5.9954 9.43213C6.02803 9.43172 6.06019 9.43982 6.08873 9.45564C6.17027 9.50082 6.25482 9.54 6.34162 9.57299C6.00847 9.16126 5.82699 8.64753 5.82758 8.1179C5.82758 7.70961 5.93575 7.30769 6.14028 6.95582C6.1555 6.92959 6.17686 6.90744 6.20252 6.89128C6.22818 6.87512 6.25738 6.86543 6.28761 6.86303C6.31784 6.86063 6.34821 6.86561 6.37609 6.87752C6.40398 6.88944 6.42856 6.90795 6.44772 6.93145C7.44486 8.15409 8.89435 8.92325 10.4535 9.06497C10.4425 8.97208 10.437 8.87863 10.437 8.78509C10.437 7.5109 11.4739 6.47423 12.7483 6.47423C13.3495 6.47423 13.9312 6.71137 14.3603 7.12791C14.7797 7.03455 15.1816 6.87516 15.5509 6.65569C15.5601 6.62677 15.5762 6.60051 15.5978 6.57919C15.6194 6.55786 15.6459 6.5421 15.6749 6.53326C15.704 6.52442 15.7347 6.52276 15.7645 6.52843C15.7944 6.5341 15.8224 6.54693 15.8461 6.56581C15.8699 6.58469 15.8887 6.60906 15.901 6.63683C15.9133 6.6646 15.9186 6.69493 15.9166 6.72521C15.9145 6.7555 15.9052 6.78484 15.8893 6.81071C15.8734 6.83657 15.8515 6.85819 15.8254 6.87371C15.7336 7.16152 15.5857 7.42833 15.3904 7.65881C15.5493 7.61082 15.705 7.55297 15.8567 7.48559C15.8938 7.46919 15.9353 7.46529 15.9748 7.47448C16.0144 7.48367 16.0499 7.50544 16.076 7.53654C16.1021 7.56764 16.1174 7.60637 16.1196 7.64691C16.1218 7.68745 16.1108 7.72761 16.0882 7.76135Z" fill="#0088C4"/>
</svg>
