<svg width="9" height="8" viewBox="0 0 9 8" fill="none" xmlns="http://www.w3.org/2000/svg">
<path d="M9 2.5C9 3.77354 8.26192 5.08354 6.80632 6.3936C6.14608 6.98545 5.42799 7.50938 4.66288 7.9575C4.61312 7.98537 4.55704 8 4.5 8C4.44296 8 4.38688 7.98537 4.33712 7.9575C4.16003 7.85834 0 5.49428 0 2.5C0.000177289 1.97541 0.165318 1.46415 0.472054 1.03858C0.77879 0.613002 1.21159 0.294662 1.70921 0.128602C2.20683 -0.0374573 2.74407 -0.0428274 3.2449 0.113251C3.74574 0.26933 4.18482 0.578955 4.5 0.998311C4.81518 0.578955 5.25426 0.26933 5.7551 0.113251C6.25594 -0.0428274 6.79317 -0.0374573 7.29079 0.128602C7.78841 0.294662 8.22121 0.613002 8.52795 1.03858C8.83468 1.46415 8.99982 1.97541 9 2.5Z" fill="#FF7E7E"/>
</svg>
