<svg width="9" height="8" viewBox="0 0 9 8" fill="none" xmlns="http://www.w3.org/2000/svg">
<mask id="path-1-inside-1_38_586" fill="white">
<path d="M4.5 8C4.45642 8.00001 4.41357 7.9888 4.37554 7.96745C3.60144 7.51296 2.87492 6.98156 2.20697 6.38127C0.742512 5.06016 0 3.74358 0 2.46809C0.000150818 1.94017 0.169124 1.4262 0.48212 1.00162C0.795115 0.577041 1.23565 0.26421 1.73906 0.109046C2.24247 -0.0461194 2.78224 -0.0354471 3.27916 0.139496C3.77607 0.314439 4.20395 0.644439 4.5 1.08106C4.79605 0.644439 5.22393 0.314439 5.72084 0.139496C6.21776 -0.0354471 6.75753 -0.0461194 7.26094 0.109046C7.76435 0.26421 8.20489 0.577041 8.51788 1.00162C8.83088 1.4262 8.99985 1.94017 9 2.46809C9 3.74358 8.25749 5.06016 6.79303 6.38126C6.12508 6.98156 5.39856 7.51296 4.62446 7.96745C4.58644 7.9888 4.54358 8.00001 4.5 8ZM2.46226 0.510639C1.94452 0.511227 1.44815 0.717646 1.08205 1.08461C0.715953 1.45158 0.510021 1.94912 0.509434 2.46809C0.509434 4.90747 3.81168 7.0322 4.5 7.4484C5.18832 7.0322 8.49057 4.90747 8.49057 2.46809C8.49048 2.01565 8.33407 1.57722 8.04793 1.22731C7.7618 0.877413 7.36359 0.637646 6.92102 0.548778C6.47845 0.45991 6.01883 0.527427 5.62031 0.73985C5.22179 0.952273 4.90897 1.29649 4.73502 1.71398C4.71565 1.76045 4.683 1.80013 4.64118 1.82805C4.59937 1.85596 4.55024 1.87086 4.5 1.87086C4.44976 1.87086 4.40063 1.85596 4.35882 1.82805C4.317 1.80013 4.28435 1.76045 4.26498 1.71398C4.11692 1.35717 3.86662 1.05239 3.54573 0.838193C3.22485 0.623997 2.84779 0.510005 2.46226 0.510639Z"/>
</mask>
<path d="M4.5 8C4.45642 8.00001 4.41357 7.9888 4.37554 7.96745C3.60144 7.51296 2.87492 6.98156 2.20697 6.38127C0.742512 5.06016 0 3.74358 0 2.46809C0.000150818 1.94017 0.169124 1.4262 0.48212 1.00162C0.795115 0.577041 1.23565 0.26421 1.73906 0.109046C2.24247 -0.0461194 2.78224 -0.0354471 3.27916 0.139496C3.77607 0.314439 4.20395 0.644439 4.5 1.08106C4.79605 0.644439 5.22393 0.314439 5.72084 0.139496C6.21776 -0.0354471 6.75753 -0.0461194 7.26094 0.109046C7.76435 0.26421 8.20489 0.577041 8.51788 1.00162C8.83088 1.4262 8.99985 1.94017 9 2.46809C9 3.74358 8.25749 5.06016 6.79303 6.38126C6.12508 6.98156 5.39856 7.51296 4.62446 7.96745C4.58644 7.9888 4.54358 8.00001 4.5 8ZM2.46226 0.510639C1.94452 0.511227 1.44815 0.717646 1.08205 1.08461C0.715953 1.45158 0.510021 1.94912 0.509434 2.46809C0.509434 4.90747 3.81168 7.0322 4.5 7.4484C5.18832 7.0322 8.49057 4.90747 8.49057 2.46809C8.49048 2.01565 8.33407 1.57722 8.04793 1.22731C7.7618 0.877413 7.36359 0.637646 6.92102 0.548778C6.47845 0.45991 6.01883 0.527427 5.62031 0.73985C5.22179 0.952273 4.90897 1.29649 4.73502 1.71398C4.71565 1.76045 4.683 1.80013 4.64118 1.82805C4.59937 1.85596 4.55024 1.87086 4.5 1.87086C4.44976 1.87086 4.40063 1.85596 4.35882 1.82805C4.317 1.80013 4.28435 1.76045 4.26498 1.71398C4.11692 1.35717 3.86662 1.05239 3.54573 0.838193C3.22485 0.623997 2.84779 0.510005 2.46226 0.510639Z" fill="#FFCCCC"/>
<path d="M4.5 8L4.50013 7L4.49987 7L4.5 8ZM4.37554 7.96745L3.86924 8.8298L3.87754 8.83467L3.88593 8.83939L4.37554 7.96745ZM2.20697 6.38127L1.53714 7.12378L1.53854 7.12504L2.20697 6.38127ZM0 2.46809L-1 2.4678V2.46809H0ZM4.5 1.08106L3.67232 1.64226L4.5 2.86295L5.32768 1.64226L4.5 1.08106ZM9 2.46809L10 2.46809L10 2.4678L9 2.46809ZM6.79303 6.38126L7.46146 7.12504L7.46286 7.12378L6.79303 6.38126ZM4.62446 7.96745L5.11407 8.83938L5.12246 8.83467L5.13076 8.8298L4.62446 7.96745ZM2.46226 0.510639L2.4634 1.51064L2.46391 1.51064L2.46226 0.510639ZM0.509434 2.46809L-0.490566 2.46695V2.46809H0.509434ZM4.5 7.4484L3.98258 8.30413L4.5 8.61699L5.01742 8.30413L4.5 7.4484ZM8.49057 2.46809L9.49057 2.46809L9.49057 2.4679L8.49057 2.46809ZM4.73502 1.71398L5.65804 2.09875L5.65811 2.09857L4.73502 1.71398ZM4.26498 1.71398L3.34133 2.09723L3.34196 2.09875L4.26498 1.71398ZM4.49987 7C4.62792 6.99998 4.7537 7.03292 4.86516 7.09551L3.88593 8.83939C4.07343 8.94467 4.28492 9.00003 4.50013 9L4.49987 7ZM4.88185 7.10509C4.16566 6.6846 3.49345 6.19293 2.8754 5.63749L1.53854 7.12504C2.2564 7.77018 3.03723 8.34131 3.86924 8.8298L4.88185 7.10509ZM2.8768 5.63875C1.50863 4.40451 1 3.33676 1 2.46809H-1C-1 4.1504 -0.0236097 5.71581 1.53714 7.12378L2.8768 5.63875ZM1 2.46837C1.00009 2.15371 1.10082 1.84761 1.28704 1.595L-0.322803 0.40824C-0.76257 1.00479 -0.999788 1.72662 -1 2.4678L1 2.46837ZM1.28704 1.595C1.47324 1.34242 1.73499 1.15672 2.03361 1.06468L1.4445 -0.84659C0.736299 -0.628301 0.11699 -0.188342 -0.322803 0.40824L1.28704 1.595ZM2.03361 1.06468C2.3322 0.972647 2.6523 0.97897 2.94708 1.08275L3.61124 -0.803755C2.91218 -1.04986 2.15273 -1.06489 1.4445 -0.84659L2.03361 1.06468ZM2.94708 1.08275C3.24188 1.18653 3.49617 1.38247 3.67232 1.64226L5.32768 0.519858C4.91173 -0.0935924 4.31026 -0.557657 3.61124 -0.803755L2.94708 1.08275ZM5.32768 1.64226C5.50383 1.38247 5.75812 1.18653 6.05292 1.08275L5.38876 -0.803755C4.68974 -0.557657 4.08827 -0.0935926 3.67232 0.519858L5.32768 1.64226ZM6.05292 1.08275C6.3477 0.97897 6.6678 0.972647 6.96639 1.06468L7.5555 -0.84659C6.84727 -1.06489 6.08782 -1.04986 5.38876 -0.803755L6.05292 1.08275ZM6.96639 1.06468C7.26501 1.15672 7.52676 1.34242 7.71296 1.595L9.3228 0.40824C8.88301 -0.188342 8.2637 -0.628301 7.5555 -0.84659L6.96639 1.06468ZM7.71296 1.595C7.89918 1.84761 7.99991 2.15371 8 2.46837L10 2.4678C9.99979 1.72662 9.76257 1.00479 9.3228 0.40824L7.71296 1.595ZM8 2.46809C8 3.33676 7.49137 4.40451 6.1232 5.63875L7.46286 7.12378C9.02361 5.71581 10 4.1504 10 2.46809L8 2.46809ZM6.1246 5.63749C5.50655 6.19293 4.83435 6.6846 4.11816 7.10509L5.13076 8.8298C5.96277 8.34131 6.7436 7.77018 7.46146 7.12504L6.1246 5.63749ZM4.13484 7.09551C4.24629 7.03292 4.37208 6.99998 4.50013 7L4.49987 9C4.71508 9.00003 4.92658 8.94467 5.11407 8.83938L4.13484 7.09551ZM2.46113 -0.489361C1.6778 -0.488471 0.927287 -0.176144 0.374112 0.37834L1.78999 1.79088C1.96902 1.61144 2.21124 1.51092 2.4634 1.51064L2.46113 -0.489361ZM0.374112 0.37834C-0.178985 0.932744 -0.48968 1.68392 -0.490565 2.46695L1.50943 2.46922C1.50972 2.21431 1.61089 1.97041 1.78999 1.79088L0.374112 0.37834ZM-0.490566 2.46809C-0.490566 4.11536 0.597973 5.50689 1.54877 6.4332C2.53923 7.39816 3.61044 8.07911 3.98258 8.30413L5.01742 6.59267C4.70124 6.40149 3.77717 5.81197 2.94442 5.00067C2.07202 4.15072 1.50943 3.26019 1.50943 2.46809H-0.490566ZM5.01742 8.30413C5.38956 8.07911 6.46077 7.39816 7.45123 6.4332C8.40203 5.50689 9.49057 4.11536 9.49057 2.46809H7.49057C7.49057 3.26019 6.92798 4.15072 6.05558 5.00067C5.22283 5.81197 4.29876 6.40149 3.98258 6.59267L5.01742 8.30413ZM9.49057 2.4679C9.49044 1.78501 9.25438 1.12294 8.82205 0.594269L7.27382 1.86036C7.41377 2.03149 7.49052 2.2463 7.49057 2.46827L9.49057 2.4679ZM8.82205 0.594269C8.38968 0.0655503 7.78759 -0.297176 7.11789 -0.431652L6.72415 1.52921C6.93959 1.57247 7.13391 1.68928 7.27382 1.86036L8.82205 0.594269ZM7.11789 -0.431652C6.44816 -0.566133 5.75272 -0.463917 5.14993 -0.142614L6.09069 1.62231C6.28494 1.51877 6.50874 1.48595 6.72415 1.52921L7.11789 -0.431652ZM5.14993 -0.142614C4.54719 0.178663 4.07459 0.698973 3.81194 1.32938L5.65811 2.09857C5.74334 1.89401 5.89639 1.72588 6.09069 1.62231L5.14993 -0.142614ZM3.81201 1.3292C3.8684 1.19393 3.9636 1.07802 4.086 0.996323L5.19637 2.65977C5.4024 2.52224 5.5629 2.32696 5.65804 2.09875L3.81201 1.3292ZM4.086 0.996323C4.20842 0.914604 4.35247 0.870858 4.5 0.870858V2.87086C4.74802 2.87086 4.99031 2.79732 5.19637 2.65977L4.086 0.996323ZM4.5 0.870858C4.64753 0.870858 4.79158 0.914604 4.914 0.996323L3.80363 2.65977C4.00969 2.79732 4.25198 2.87086 4.5 2.87086V0.870858ZM4.914 0.996323C5.0364 1.07803 5.1316 1.19394 5.18799 1.3292L3.34196 2.09875C3.43709 2.32695 3.59759 2.52224 3.80363 2.65977L4.914 0.996323ZM5.18862 1.33072C4.96489 0.791534 4.58649 0.330591 4.10092 0.00646885L2.99054 1.66992C3.14675 1.77419 3.26896 1.9228 3.34133 2.09723L5.18862 1.33072ZM4.10092 0.00646885C3.61533 -0.317672 3.04449 -0.490319 2.46062 -0.48936L2.46391 1.51064C2.6511 1.51033 2.83437 1.56567 2.99054 1.66992L4.10092 0.00646885Z" fill="#C7C5C5" mask="url(#path-1-inside-1_38_586)"/>
</svg>
