<svg width="19" height="19" viewBox="0 0 19 19" fill="none" xmlns="http://www.w3.org/2000/svg">
<path d="M12.4656 16.7834C11.9478 16.7833 11.4348 16.6841 10.9543 16.4912C9.04959 15.7257 7.31933 14.583 5.86746 13.1318C4.41558 11.6806 3.27206 9.95084 2.5056 8.04653C2.26012 7.43324 2.16753 6.76944 2.2358 6.11238C2.30407 5.45533 2.53115 4.82475 2.89747 4.27503L3.67885 3.10336C3.85323 2.84188 4.08684 2.62522 4.36069 2.47099C4.63455 2.31676 4.94092 2.22931 5.25492 2.21573C5.56892 2.20216 5.8817 2.26284 6.16784 2.39286C6.45398 2.52289 6.70542 2.71857 6.90172 2.96403L7.87468 4.18082C8.13934 4.50966 8.29193 4.91452 8.31016 5.33624C8.3284 5.75797 8.21131 6.17448 7.97601 6.52494L7.18435 7.71878C7.41311 8.71877 7.91923 9.63399 8.6446 10.3594C9.36997 11.0847 10.2852 11.5908 11.2852 11.8196L12.4798 11.0232C12.8306 10.7886 13.247 10.672 13.6686 10.6904C14.0902 10.7087 14.4949 10.8611 14.8239 11.1253L16.0399 12.0991C16.2853 12.2953 16.481 12.5468 16.6109 12.8329C16.7409 13.119 16.8015 13.4317 16.7879 13.7457C16.7742 14.0596 16.6867 14.3659 16.5324 14.6397C16.378 14.9134 16.1613 15.1469 15.8998 15.3212L14.7289 16.1017C14.0585 16.5478 13.2708 16.785 12.4656 16.7834ZM5.34372 3.00836H5.2891C5.09957 3.01586 4.91455 3.06839 4.74936 3.16158C4.58416 3.25478 4.44353 3.38598 4.3391 3.54432L3.55772 4.71598C3.26245 5.15862 3.07932 5.66646 3.02415 6.19568C2.96898 6.7249 3.04343 7.25959 3.24105 7.75361C3.9673 9.55879 5.05095 11.1985 6.42691 12.5744C7.80286 13.9502 9.44272 15.0337 11.248 15.7597C11.7419 15.9578 12.2767 16.0324 12.806 15.9773C13.3353 15.9221 13.8431 15.7387 14.2856 15.4431L15.4565 14.6625C15.6145 14.5573 15.7455 14.4164 15.8388 14.251C15.9321 14.0857 15.985 13.9007 15.9932 13.711C16.0015 13.5214 15.9648 13.3325 15.8863 13.1597C15.8077 12.9869 15.6895 12.835 15.5412 12.7166L14.3291 11.7428C14.131 11.5841 13.8874 11.4926 13.6337 11.4816C13.3801 11.4706 13.1295 11.5408 12.9184 11.6819L11.5852 12.5709C11.498 12.6292 11.3913 12.6506 11.2883 12.6303C10.0739 12.3908 8.95802 11.7959 8.0824 10.921C7.20678 10.0461 6.61093 8.93065 6.37051 7.7164C6.36022 7.66537 6.3601 7.61281 6.37016 7.56173C6.38021 7.51065 6.40024 7.46206 6.4291 7.41873L7.31735 6.08557C7.45932 5.87493 7.53001 5.62433 7.51904 5.37055C7.50807 5.11677 7.41601 4.8732 7.25639 4.67561L6.28343 3.45882C6.17136 3.31723 6.02846 3.20306 5.86563 3.125C5.70279 3.04694 5.5243 3.00705 5.34372 3.00836Z" fill="#444444"/>
</svg>
