<svg width="30" height="24" viewBox="0 0 30 24" fill="none" xmlns="http://www.w3.org/2000/svg">
<path d="M8.57948 24C5.71443 24.0004 2.89622 23.2731 0.389155 21.8863C0.243427 21.8052 0.128542 21.6782 0.0623095 21.5251C-0.00392294 21.372 -0.0178025 21.2014 0.0228226 21.0396C0.0634478 20.8778 0.156308 20.734 0.287008 20.6303C0.417707 20.5267 0.578945 20.4691 0.745724 20.4664C3.38296 20.4297 5.96602 19.7125 8.24472 18.3844C5.61748 16.3224 3.65892 13.5292 2.61553 10.3566C1.57215 7.18392 1.49058 3.77352 2.38109 0.554605C2.42001 0.41421 2.49863 0.288035 2.60751 0.191229C2.71638 0.0944224 2.85089 0.0311001 2.99487 0.00886565C3.13886 -0.0133688 3.2862 0.0064295 3.4192 0.0658833C3.55221 0.125337 3.66523 0.221919 3.74469 0.344033C4.88307 2.10199 6.3692 3.60835 8.1116 4.77039C9.85401 5.93243 11.8158 6.72555 13.8762 7.10093C13.8751 7.05326 13.8745 7.00555 13.8745 6.95779C13.8746 5.71525 14.2735 4.50555 15.0126 3.50673C15.7517 2.5079 16.7919 1.7727 17.9801 1.40932C19.1683 1.04595 20.4418 1.07359 21.6132 1.48818C22.7845 1.90277 23.7918 2.68242 24.4869 3.71238C25.8601 3.63304 27.2167 3.37067 28.5205 2.93223C28.6715 2.88149 28.8347 2.87971 28.9869 2.92715C29.139 2.9746 29.2722 3.06883 29.3676 3.19644C29.463 3.32405 29.5157 3.47851 29.5182 3.63783C29.5207 3.79714 29.4728 3.95318 29.3815 4.0837C28.3044 5.6262 26.9767 6.97744 25.4533 8.08136C25.2022 12.3865 23.3151 16.4329 20.1782 19.3922C17.0413 22.3515 12.892 23.9999 8.57948 24ZM3.67302 21.6855C5.25454 22.2156 6.91148 22.4861 8.57948 22.4864C12.5651 22.4864 16.3952 20.94 19.2636 18.1728C22.132 15.4056 23.8149 11.6334 23.958 7.65036C23.9622 7.53244 23.9939 7.41712 24.0506 7.31362C24.1072 7.21012 24.1873 7.12129 24.2844 7.05424C25.1681 6.44427 25.9849 5.74273 26.7213 4.96127C25.8559 5.12357 24.9792 5.21817 24.0991 5.24421C23.9572 5.24812 23.8171 5.21219 23.6946 5.14049C23.572 5.0688 23.4721 4.96421 23.406 4.83859C22.9009 3.9521 22.0964 3.27463 21.1368 2.92778C20.1773 2.58092 19.1256 2.58738 18.1704 2.946C17.2152 3.30462 16.4191 3.99192 15.9249 4.88455C15.4307 5.77718 15.2708 6.81672 15.474 7.81659C15.503 7.93666 15.5022 8.062 15.4716 8.18168C15.4411 8.30137 15.3817 8.41177 15.2987 8.50327C15.2158 8.59476 15.1117 8.66457 14.9955 8.70662C14.8794 8.74866 14.7547 8.76166 14.6324 8.74448C10.2507 8.22482 6.24818 6.00542 3.48657 2.56406C3.00944 5.46251 3.37041 8.43695 4.52698 11.1371C5.68355 13.8373 7.58757 16.1508 10.0148 17.8052C10.1167 17.8747 10.2001 17.9679 10.2577 18.0769C10.3153 18.1859 10.3454 18.3073 10.3454 18.4306C10.3454 18.5539 10.3153 18.6753 10.2577 18.7843C10.2001 18.8933 10.1167 18.9865 10.0148 19.056C8.10441 20.3596 5.94541 21.2548 3.67302 21.6855Z" fill="black"/>
</svg>
