<svg width="24" height="24" viewBox="0 0 24 24" fill="none" xmlns="http://www.w3.org/2000/svg">
<path d="M24 12.0001C24 9.62681 23.2963 7.30685 21.9779 5.33352C20.6594 3.36019 18.7855 1.82211 16.5929 0.913759C14.4004 0.00540907 11.9878 -0.232417 9.66007 0.230352C7.33238 0.693122 5.19418 1.8357 3.51582 3.51363C1.83746 5.19155 0.694328 7.32946 0.230958 9.65703C-0.232413 11.9846 0.0047889 14.3973 0.912572 16.5901C1.82035 18.7828 3.35795 20.6572 5.33094 21.9762C7.30393 23.2951 9.62371 23.9994 11.997 24L12 24.0002L12.003 24C15.184 23.9956 18.2334 22.7298 20.4824 20.4803C22.7314 18.2307 23.9964 15.181 24 12.0001ZM12.7059 22.5642V14.5884H15.7647C15.9519 14.5884 16.1315 14.514 16.2638 14.3817C16.3962 14.2493 16.4706 14.0697 16.4706 13.8825C16.4706 13.6953 16.3962 13.5158 16.2638 13.3834C16.1315 13.251 15.9519 13.1766 15.7647 13.1766H12.7059V10.1178C12.7065 9.55638 12.9298 9.01812 13.3268 8.62112C13.7238 8.22412 14.2621 8.00081 14.8235 8.00018H16.7059C16.8931 8.00018 17.0726 7.92581 17.205 7.79343C17.3374 7.66105 17.4118 7.48151 17.4118 7.2943C17.4118 7.10708 17.3374 6.92754 17.205 6.79516C17.0726 6.66278 16.8931 6.58841 16.7059 6.58841H14.8235C13.8878 6.58947 12.9907 6.96166 12.329 7.62333C11.6674 8.28499 11.2952 9.18209 11.2941 10.1178V13.1766H8.2353C8.04809 13.1766 7.86854 13.251 7.73616 13.3834C7.60379 13.5158 7.52942 13.6953 7.52942 13.8825C7.52942 14.0697 7.60379 14.2493 7.73616 14.3817C7.86854 14.514 8.04809 14.5884 8.2353 14.5884H11.2941V22.5642C8.5532 22.3811 5.99075 21.1399 4.14789 19.1027C2.30503 17.0656 1.32604 14.3919 1.41766 11.6464C1.50928 8.90091 2.66433 6.29848 4.6389 4.38871C6.61347 2.47893 9.25297 1.41132 12 1.41132C14.747 1.41132 17.3865 2.47893 19.3611 4.38871C21.3357 6.29848 22.4907 8.90091 22.5823 11.6464C22.674 14.3919 21.695 17.0656 19.8521 19.1027C18.0093 21.1399 15.4468 22.3811 12.7059 22.5642V22.5642Z" fill="black"/>
</svg>
