<svg width="18" height="18" viewBox="0 0 18 18" fill="none" xmlns="http://www.w3.org/2000/svg">
<path d="M9 3.65625C8.38812 3.65625 7.78997 3.8377 7.28121 4.17764C6.77244 4.51759 6.37591 5.00076 6.14175 5.56607C5.90759 6.13138 5.84632 6.75343 5.9657 7.35356C6.08507 7.95369 6.37972 8.50494 6.81239 8.93761C7.24506 9.37028 7.79631 9.66493 8.39644 9.7843C8.99657 9.90368 9.61862 9.84241 10.1839 9.60825C10.7492 9.37409 11.2324 8.97756 11.5724 8.4688C11.9123 7.96003 12.0938 7.36189 12.0938 6.75C12.0928 5.92977 11.7666 5.14341 11.1866 4.56342C10.6066 3.98343 9.82023 3.65718 9 3.65625ZM9 9.28125C8.49937 9.28125 8.00998 9.13279 7.59371 8.85466C7.17745 8.57652 6.85302 8.18119 6.66143 7.71867C6.46985 7.25614 6.41972 6.74719 6.51739 6.25618C6.61506 5.76516 6.85614 5.31414 7.21014 4.96014C7.56414 4.60613 8.01516 4.36506 8.50618 4.26739C8.99719 4.16972 9.50614 4.21985 9.96867 4.41143C10.4312 4.60301 10.8265 4.92745 11.1047 5.34371C11.3828 5.75997 11.5313 6.24937 11.5313 6.75C11.5305 7.4211 11.2636 8.0645 10.789 8.53904C10.3145 9.01358 9.6711 9.28051 9 9.28125Z" fill="#444444"/>
<path d="M9 0C7.21042 0.00204705 5.49472 0.713863 4.22929 1.97929C2.96386 3.24472 2.25205 4.96042 2.25 6.75C2.25 11.5957 8.53802 17.666 8.80554 17.922C8.85791 17.9721 8.92756 18 9 18C9.07244 18 9.14209 17.9721 9.19446 17.922C9.46198 17.666 15.75 11.5957 15.75 6.75C15.748 4.96042 15.0361 3.24472 13.7707 1.97929C12.5053 0.713863 10.7896 0.00204705 9 0V0ZM9 17.3234C7.92965 16.2495 2.8125 10.8968 2.8125 6.75C2.8125 5.10897 3.4644 3.53516 4.62478 2.37478C5.78516 1.2144 7.35897 0.5625 9 0.5625C10.641 0.5625 12.2148 1.2144 13.3752 2.37478C14.5356 3.53516 15.1875 5.10897 15.1875 6.75C15.1875 10.8947 10.0704 16.2491 9 17.3234Z" fill="#444444"/>
</svg>
