<svg width="21" height="21" viewBox="0 0 21 21" fill="none" xmlns="http://www.w3.org/2000/svg">
<path fill-rule="evenodd" clip-rule="evenodd" d="M10.5 17.5C14.366 17.5 17.5 14.366 17.5 10.5C17.5 6.63401 14.366 3.5 10.5 3.5C6.63401 3.5 3.5 6.63401 3.5 10.5C3.5 14.366 6.63401 17.5 10.5 17.5ZM18.375 10.5C18.375 14.8493 14.8493 18.375 10.5 18.375C6.15076 18.375 2.625 14.8493 2.625 10.5C2.625 6.15076 6.15076 2.625 10.5 2.625C14.8493 2.625 18.375 6.15076 18.375 10.5Z" fill="#444444"/>
<path fill-rule="evenodd" clip-rule="evenodd" d="M10.0625 14.0008V8.75H10.9375V14.0008H10.0625Z" fill="#444444"/>
<path fill-rule="evenodd" clip-rule="evenodd" d="M10.0625 7.87578V7H10.9375V7.87578H10.0625Z" fill="#444444"/>
</svg>
