<svg width="17" height="12" viewBox="0 0 17 12" fill="none" xmlns="http://www.w3.org/2000/svg">
<path d="M2.25 0C1.00988 0 0 1.00988 0 2.25V9.75C0 10.9901 1.00988 12 2.25 12H14.25C15.4901 12 16.5 10.9901 16.5 9.75V2.25C16.5 1.00988 15.4901 0 14.25 0H2.25ZM2.25 0.75H14.25C15.0874 0.75 15.75 1.41262 15.75 2.25V9.75C15.75 10.5874 15.0874 11.25 14.25 11.25H2.25C2.0526 11.2515 1.85687 11.2137 1.67421 11.1389C1.49154 11.064 1.32559 10.9536 1.186 10.814C1.04641 10.6744 0.935982 10.5085 0.861131 10.3258C0.786279 10.1431 0.748503 9.9474 0.75 9.75V2.25C0.75 1.41262 1.41262 0.75 2.25 0.75Z" fill="#444444"/>
<path d="M2.63579 2.25001C2.58473 2.24856 2.53391 2.25756 2.48645 2.27646C2.43899 2.29535 2.39589 2.32374 2.35979 2.35989C2.28949 2.43021 2.25 2.52558 2.25 2.62501C2.25 2.72445 2.28949 2.81982 2.35979 2.89014L6.85979 7.39014C7.62442 8.15514 8.87542 8.15514 9.64005 7.39014L14.14 2.89014C14.2103 2.81982 14.2498 2.72445 14.2498 2.62501C14.2498 2.52558 14.2103 2.43021 14.14 2.35989C14.0697 2.28959 13.9744 2.25009 13.8749 2.25009C13.7755 2.25009 13.6801 2.28959 13.6098 2.35989L9.10979 6.85989C8.99725 6.97347 8.86331 7.06363 8.71573 7.12517C8.56814 7.1867 8.40982 7.21838 8.24992 7.21838C8.09002 7.21838 7.9317 7.1867 7.78411 7.12517C7.63653 7.06363 7.50259 6.97347 7.39005 6.85989L2.89004 2.35989C2.82242 2.29216 2.73146 2.25285 2.63579 2.25001Z" fill="#444444"/>
</svg>
