<svg width="21" height="21" viewBox="0 0 21 21" fill="none" xmlns="http://www.w3.org/2000/svg">
<g clip-path="url(#clip0_1_2204)">
<path d="M10.5 0C4.70072 0 0 4.70072 0 10.5C0 16.2993 4.70072 21 10.5 21C16.2986 21 21 16.2986 21 10.5C21 4.70137 16.2993 0 10.5 0ZM10.5052 15.7526C9.53226 15.7522 8.57381 15.5164 7.71159 15.0655L4.43822 16.5552L5.35434 12.8894C4.75705 11.9262 4.43982 10.8157 4.43822 9.68231C4.43822 6.33806 7.15116 3.62316 10.5059 3.62316C13.8482 3.62316 16.5618 6.33806 16.5618 9.68231C16.5611 13.0377 13.8482 15.7526 10.5052 15.7526Z" fill="#0088C4"/>
<path d="M10.5052 4.83722C7.82569 4.83722 5.65088 7.00219 5.65088 9.68231C5.64953 10.8474 6.06822 11.9739 6.83016 12.8553L6.16604 14.5392L7.64326 13.6001C8.47051 14.2145 9.47472 14.5441 10.5052 14.5392C13.184 14.5392 15.3476 12.3631 15.3476 9.68297C15.3486 9.04663 15.224 8.41635 14.981 7.82822C14.738 7.24009 14.3814 6.70567 13.9316 6.25555C13.4818 5.80544 12.9476 5.44847 12.3597 5.20509C11.7717 4.96171 11.1415 4.8367 10.5052 4.83722ZM13.5738 11.7088C13.5279 11.949 12.9556 12.4648 12.5087 12.5678C11.5473 12.7851 10.1849 12.0179 9.30291 11.2055C8.42091 10.4042 7.54023 9.10941 7.66623 8.13553C7.72332 7.68863 8.19254 7.07044 8.42157 6.99038C8.5246 6.96741 8.67291 6.96741 8.81073 6.96741C8.97085 6.97856 9.10866 6.99038 9.1546 7.0816L9.66976 8.42166C9.70388 8.52469 9.62382 8.63888 9.52079 8.76553C9.37248 8.93747 9.34951 8.94863 9.21169 9.13238C9.14344 9.2236 9.18873 9.33844 9.21169 9.38372C9.36066 9.73875 9.70388 10.1397 10.013 10.4258C10.3339 10.7126 10.7565 11.0217 11.1234 11.1471C11.1463 11.1471 11.2835 11.2042 11.3865 11.1812C11.4777 11.17 11.5348 11.1011 11.6149 10.9981C11.7632 10.815 11.8209 10.7461 11.9469 10.5742C12.05 10.4482 12.1524 10.4022 12.2567 10.4593L13.4242 10.9981C13.516 11.044 13.5502 11.1582 13.5613 11.319C13.5849 11.4575 13.5968 11.6064 13.5738 11.7088Z" fill="#0088C4"/>
</g>
<defs>
<clipPath id="clip0_1_2204">
<rect width="21" height="21" fill="white"/>
</clipPath>
</defs>
</svg>
