<svg width="21" height="21" viewBox="0 0 21 21" fill="none" xmlns="http://www.w3.org/2000/svg">
<path d="M18.4875 4.30424C18.4875 1.93078 16.5565 0 14.1832 0C11.8099 0 9.87916 1.93078 9.87916 4.30424C9.87916 4.91499 10.0069 5.52365 10.2443 6.07336L6.78616 4.92059L0 7.61705V21L6.8134 18.5634L14.2015 20.9851L20.988 18.3333V4.67065L18.2452 5.75484C18.4034 5.29278 18.4875 4.79915 18.4875 4.30424ZM14.1832 1.22983C15.8785 1.22983 17.2576 2.60898 17.2576 4.30424C17.2576 4.91947 17.0817 5.52878 16.7621 6.01968L14.1832 9.9817L11.6044 6.01968C11.2849 5.52878 11.1088 4.91947 11.1088 4.30424C11.1088 2.60898 12.488 1.22983 14.1832 1.22983ZM7.4195 6.42808L11.2295 7.69796L13.5683 11.2913V19.4834L7.4195 17.468V6.42808ZM1.22983 8.45178L6.18983 6.48095V17.4803L1.22983 19.2541V8.45178ZM19.7582 17.4936L14.7981 19.4316V11.2913L17.2972 7.45203L19.7582 6.47919V17.4936Z" fill="black"/>
</svg>
