<svg width="22" height="20" viewBox="0 0 22 20" fill="none" xmlns="http://www.w3.org/2000/svg">
<path d="M15.6302 10.8563H12.6408C11.8227 10.8563 11.1573 11.5216 11.1573 12.3398V14.6324C11.1573 15.4505 11.8227 16.1158 12.6408 16.1158H15.6302C16.4483 16.1158 17.1136 15.4505 17.1136 14.6324V12.3398C17.1136 11.5216 16.4483 10.8563 15.6302 10.8563ZM16.0348 14.6324C16.0348 14.8571 15.8504 15.037 15.6302 15.037H12.6408C12.416 15.037 12.2362 14.8526 12.2362 14.6324V12.3398C12.2362 12.115 12.4205 11.9352 12.6408 11.9352H15.6302C15.8549 11.9352 16.0348 12.1195 16.0348 12.3398V14.6324Z" fill="black"/>
<path d="M22 6.68917C22 6.59477 21.9775 6.50486 21.9281 6.42395L18.6555 0.669965C18.5611 0.503639 18.3813 0.395752 18.188 0.395752H3.80752C3.61422 0.395752 3.43441 0.499144 3.34001 0.669965L0.0719248 6.42395C0.0269718 6.50486 0 6.59477 0 6.68917C0 7.97932 0.777687 9.08517 1.88803 9.57516V19.0647C1.88803 19.3614 2.13077 19.6042 2.42746 19.6042H5.40785C5.41234 19.6042 5.41684 19.6042 5.42133 19.6042H9.60196C9.60646 19.6042 9.61095 19.6042 9.61545 19.6042H19.568C19.8647 19.6042 20.1075 19.3614 20.1075 19.0647V9.64258C20.1075 9.62011 20.1075 9.60213 20.103 9.58415C21.2178 9.09416 22 7.98382 22 6.68917ZM4.12219 1.47912H17.8733L20.4311 5.97891H1.56886L4.12219 1.47912ZM15.6571 7.05329C15.4863 8.02428 14.6367 8.76151 13.6163 8.76151C12.5958 8.76151 11.7462 8.02428 11.5754 7.05329H15.6571ZM10.4291 7.05329C10.2583 8.02428 9.40866 8.76151 8.38823 8.76151C7.3678 8.76151 6.51819 8.02428 6.34287 7.05329H10.4291ZM1.11483 7.05329H5.20106C5.03024 8.02428 4.17613 8.76151 3.1557 8.76151C2.13527 8.766 1.28566 8.02428 1.11483 7.05329ZM9.06253 18.5253H5.96077V12.7039C5.96077 12.2813 6.30241 11.9352 6.72946 11.9352H8.29832C8.72088 11.9352 9.06702 12.2768 9.06702 12.7039V18.5253H9.06253ZM19.0286 18.5253H10.1414V12.7039C10.1414 11.6879 9.31426 10.8563 8.29383 10.8563H6.72497C5.70903 10.8563 4.8774 11.6835 4.8774 12.7039V18.5298H2.9669V9.84038C3.02983 9.84487 3.09277 9.84487 3.1557 9.84487C4.24356 9.84487 5.20556 9.29195 5.77197 8.45133C6.33837 9.29195 7.30037 9.84487 8.38823 9.84487C9.47609 9.84487 10.4336 9.29195 11.0045 8.45133C11.5709 9.29195 12.5329 9.84487 13.6163 9.84487C14.7041 9.84487 15.6616 9.29195 16.228 8.45133C16.7944 9.29195 17.7564 9.84487 18.8443 9.84487C18.9072 9.84487 18.9657 9.84038 19.0286 9.84038V18.5253ZM18.8443 8.766C17.8239 8.766 16.9743 8.02877 16.8034 7.05779H20.8897C20.7143 8.02428 19.8647 8.766 18.8443 8.766Z" fill="black"/>
</svg>
