<svg width="27" height="20" viewBox="0 0 27 20" fill="none" xmlns="http://www.w3.org/2000/svg">
<path d="M26.209 14.359H25.867C25.6785 11.4294 24.4161 8.70056 22.2629 6.60667C20.622 5.01103 18.6019 3.91877 16.4004 3.4078V2.82051C16.4004 1.26528 15.0993 0 13.5 0C11.9007 0 10.5996 1.26528 10.5996 2.82051V3.4078C8.39811 3.91882 6.37796 5.01103 4.73713 6.60667C2.58393 8.70056 1.32158 11.4294 1.133 14.359H0.791016C0.354164 14.359 0 14.7034 0 15.1282C0 17.8145 2.24738 20 5.00977 20H21.8848C23.2243 20 24.4978 19.4965 25.4703 18.5823C26.4567 17.655 27 16.4284 27 15.1282C27 14.7034 26.6458 14.359 26.209 14.359ZM12.1816 2.82051C12.1816 2.11359 12.7731 1.53846 13.5 1.53846C14.2269 1.53846 14.8184 2.11359 14.8184 2.82051V3.14462C14.3833 3.10015 13.9435 3.07692 13.5 3.07692C13.0565 3.07692 12.6167 3.10015 12.1816 3.14462V2.82051ZM13.5 4.61538C19.1949 4.61538 23.875 8.91995 24.2815 14.359H2.71851C3.12499 8.91995 7.80511 4.61538 13.5 4.61538ZM21.8848 18.4615H5.00977C3.39182 18.4615 2.03212 17.3659 1.67416 15.8974H25.3187C24.9394 17.3481 23.5205 18.4615 21.8848 18.4615Z" fill="black"/>
</svg>
