<svg width="19" height="20" viewBox="0 0 19 20" fill="none" xmlns="http://www.w3.org/2000/svg">
<path d="M18.5617 8.13529L10.1395 0.38107C9.86567 0.128986 9.50511 -0.00743825 9.13315 0.00031311C8.76118 0.00806447 8.40661 0.159391 8.14354 0.422664L0.397516 8.17447L0 8.57224V20H7.46429V12.8697H11.5357V20H19V8.53883L18.5617 8.13529ZM9.16232 1.35817C9.17428 1.35817 9.16691 1.36076 9.16177 1.36581C9.15647 1.36076 9.15037 1.35817 9.16232 1.35817ZM17.6429 18.6419H12.8929V12.8697C12.8929 12.5095 12.7499 12.1641 12.4954 11.9094C12.2408 11.6547 11.8957 11.5116 11.5357 11.5116H7.46429C7.10435 11.5116 6.75915 11.6547 6.50464 11.9094C6.25013 12.1641 6.10714 12.5095 6.10714 12.8697V18.6419H1.35714V9.13481L9.16232 1.383C9.16288 1.38249 9.16292 1.38203 9.16334 1.38152L17.6429 9.13481V18.6419Z" fill="black"/>
</svg>
